<?xml version="1.0" encoding="UTF-8"?>
<svg version="1.1" xmlns="http://www.w3.org/2000/svg" width="24" height="24">
<path d="M0 0 C5.94 0 11.88 0 18 0 C18 5.94 18 11.88 18 18 C12.06 18 6.12 18 0 18 C0 12.06 0 6.12 0 0 Z M2 3 C1.90126184 4.99799572 1.87028201 6.99957158 1.875 9 C1.87242188 10.093125 1.86984375 11.18625 1.8671875 12.3125 C1.69452245 14.91830354 1.69452245 14.91830354 3 16 C4.99799572 16.09873816 6.99957158 16.12971799 9 16.125 C10.093125 16.12757812 11.18625 16.13015625 12.3125 16.1328125 C14.91830354 16.30547755 14.91830354 16.30547755 16 15 C16.09873816 13.00200428 16.12971799 11.00042842 16.125 9 C16.12757812 7.906875 16.13015625 6.81375 16.1328125 5.6875 C16.30547755 3.08169646 16.30547755 3.08169646 15 2 C13.00200428 1.90126184 11.00042842 1.87028201 9 1.875 C7.906875 1.87242188 6.81375 1.86984375 5.6875 1.8671875 C3.08169646 1.69452245 3.08169646 1.69452245 2 3 Z " fill="#000000" transform="translate(3,3)"/>
<path d="M0 0 C3.96 0 7.92 0 12 0 C12 1.32 12 2.64 12 4 C11.34 4 10.68 4 10 4 C10 4.66 10 5.32 10 6 C6.7 6 3.4 6 0 6 C0 4.02 0 2.04 0 0 Z " fill="#000000" transform="translate(6,9)"/>
</svg>
