<svg xmlns="http://www.w3.org/2000/svg" width="1em" height="1em" viewBox="0 0 24 24"><path fill="none" stroke="currentColor" stroke-linecap="round" stroke-linejoin="round" stroke-width="1.5" d="M2.5 12c0-4.23 0-6.345 1.198-7.747q.256-.3.555-.555C5.655 2.5 7.77 2.5 12 2.5s6.345 0 7.747 1.198q.3.256.555.555C21.5 5.655 21.5 7.77 21.5 12s0 6.345-1.198 7.747q-.256.3-.555.555C18.345 21.5 16.23 21.5 12 21.5s-6.345 0-7.747-1.198q-.3-.256-.555-.555C2.5 18.345 2.5 16.23 2.5 12M8 17.5l8-10" color="currentColor"/></svg>