<?xml version="1.0" encoding="UTF-8"?>
<svg version="1.1" xmlns="http://www.w3.org/2000/svg" width="24" height="24">
<path d="M0 0 C5.94 0 11.88 0 18 0 C18 5.94 18 11.88 18 18 C12.06 18 6.12 18 0 18 C0 12.06 0 6.12 0 0 Z M2 3 C1.95907063 5.33297433 1.95758277 7.66705225 2 10 C2.99 9.34 3.98 8.68 5 8 C5 6.68 5 5.36 5 4 C6.32 4 7.64 4 9 4 C8 7 8 7 6 9 C9.79968558 9.2981424 9.79968558 9.2981424 12.125 7.9375 C12.74375 7.628125 13.3625 7.31875 14 7 C14.66 7.33 15.32 7.66 16 8 C16.042721 6.33388095 16.04063832 4.66617115 16 3 C14.91830354 1.69452245 14.91830354 1.69452245 12.3125 1.8671875 C11.219375 1.86976562 10.12625 1.87234375 9 1.875 C7.906875 1.87242188 6.81375 1.86984375 5.6875 1.8671875 C3.08169646 1.69452245 3.08169646 1.69452245 2 3 Z M12 11 C11.608125 11.515625 11.21625 12.03125 10.8125 12.5625 C10.214375 13.036875 9.61625 13.51125 9 14 C6.3125 13.6875 6.3125 13.6875 4 13 C3.67 13.99 3.34 14.98 3 16 C6.96 16 10.92 16 15 16 C15 14.68 15 13.36 15 12 C14.01 11.67 13.02 11.34 12 11 Z " fill="#5a6af9" transform="translate(3,3)"/>
</svg>
